<svg xmlns="http://www.w3.org/2000/svg" xmlns:xlink="http://www.w3.org/1999/xlink" width="40" height="40" viewBox="0 0 40 40">
    <defs>
        <path id="a" d="M0 0h36.506v36.658H.001z"/>
    </defs>
    <g fill="none" fill-rule="evenodd" transform="translate(1.25 1.25)">
        <mask id="b" fill="#fff">
            <use xlink:href="#a"/>
        </mask>
        <path fill="#16254F" fill-rule="nonzero" d="M26.803 18.838a11.742 11.742 0 0 0 2.528-7.317c0-6.353-4.968-11.522-11.078-11.522C12.145 0 7.176 5.17 7.176 11.521c0 2.776.95 5.326 2.529 7.317C3.765 22.114 0 28.548 0 35.61c0 .577.45 1.047 1.006 1.047H35.5c.557 0 1.008-.47 1.008-1.047 0-7.064-3.767-13.497-9.704-16.773zM9.19 11.52c0-5.198 4.066-9.426 9.063-9.426 4.998 0 9.064 4.228 9.064 9.426a9.585 9.585 0 0 1-2.961 6.964l-.035.032a9.929 9.929 0 0 1-.327.292 8.265 8.265 0 0 1-.31.254c-.01.009-.022.016-.032.024a8.668 8.668 0 0 1-.322.24l-.035.022a8.556 8.556 0 0 1-.33.22l-.04.028c-.11.067-.22.135-.333.198l-.054.03c-.107.06-.216.118-.327.174l-.072.037c-.104.051-.21.1-.315.147l-.096.044a8.959 8.959 0 0 1-.7.267l-.144.048a6.907 6.907 0 0 1-.265.076 5.21 5.21 0 0 1-.163.047l-.254.061a7.621 7.621 0 0 1-.429.086c-.062.012-.125.022-.187.033-.084.013-.17.024-.257.033-.062.007-.123.016-.183.024a8.903 8.903 0 0 1-.444.033 8.862 8.862 0 0 1-.897 0l-.158-.01a9.6 9.6 0 0 1-.287-.023c-.06-.008-.12-.017-.183-.024a5.005 5.005 0 0 1-.257-.033l-.186-.033a7.621 7.621 0 0 1-.428-.085c-.085-.022-.17-.041-.255-.062a6.638 6.638 0 0 1-.163-.047 7.748 7.748 0 0 1-.266-.076l-.144-.048a10.473 10.473 0 0 1-.4-.146 10.425 10.425 0 0 1-.396-.165 8.75 8.75 0 0 1-.313-.147L14.295 20a7.576 7.576 0 0 1-.326-.174l-.056-.03a9.253 9.253 0 0 1-.702-.446l-.033-.022a10.126 10.126 0 0 1-.323-.24c-.01-.008-.022-.015-.03-.024a6.447 6.447 0 0 1-.31-.254.272.272 0 0 1-.035-.027c-.099-.087-.197-.174-.293-.265-.013-.01-.023-.021-.035-.032a9.575 9.575 0 0 1-2.962-6.964zM2.044 34.562c.364-6.08 3.857-11.503 9.152-14.163.555.479 1.154.896 1.778 1.248l.006.005c.153.087.307.168.463.246l.02.01c.156.078.313.152.472.222l.014.006c.492.218.997.396 1.515.536.039.01.078.018.118.03.127.033.252.063.38.091.058.014.118.024.177.036a12.97 12.97 0 0 0 .532.095l.324.042c.067.007.133.016.2.024l.353.027a10.403 10.403 0 0 0 1.236.012c.058-.003.117-.01.174-.012l.352-.027.2-.024c.11-.014.219-.027.327-.042a12.864 12.864 0 0 0 .53-.095c.06-.012.119-.022.178-.036.127-.028.254-.06.38-.091.04-.012.079-.02.119-.03.516-.14 1.023-.318 1.513-.536.006-.001.009-.004.013-.006a11.415 11.415 0 0 0 .493-.232c.156-.078.31-.16.463-.246l.006-.005c.626-.352 1.222-.77 1.778-1.248 5.296 2.66 8.79 8.084 9.152 14.163H2.044z" mask="url(#b)"/>
    </g>
</svg>
